# xmcd CD database file
#
# Track frame offsets:
#	150
#	17576
#	34628
#	49608
#	66265
#	82349
#	90754
#	105146
#	120659
#	143683
#	160096
#
# Disc length: 2193 seconds
#
# Revision: 3
# Processed by: cddbd v1.5.2PL0 Copyright (c) Steve Scherf et al.
# Submitted via: CDex 1.51
#
DISCID=7a088f0b
DTITLE=Cat Stevens - Tea for the Tillerman
DYEAR=1970
DGENRE=Blues
TTITLE0=Unbekannt - Steven01
TTITLE1=Unbekannt - Steven02
TTITLE2=Unbekannt - Steven03
TTITLE3=Unbekannt - Steven04
TTITLE4=Unbekannt - Steven05
TTITLE5=Unbekannt - Steven06
TTITLE6=Unbekannt - Steven07
TTITLE7=Unbekannt - Steven08
TTITLE8=Unbekannt - Steven09
TTITLE9=Unbekannt - Steven10
TTITLE10=Unbekannt - Steven11
EXTD=YEAR: 1970
EXTT0=
EXTT1=
EXTT2=
EXTT3=
EXTT4=
EXTT5=
EXTT6=
EXTT7=
EXTT8=
EXTT9=
EXTT10=
PLAYORDER=
